<?xml version="1.0" ?><svg height="100px" id="Bank" style="enable-background:new 0 0 100 100;" version="1.1" viewBox="0 0 100 100" width="100px" xml:space="preserve" xmlns="http://www.w3.org/2000/svg" xmlns:xlink="http://www.w3.org/1999/xlink"><path d="M91.628,96.75H6.886V84.856h84.742V96.75z M9.859,93.776h78.795V87.83H9.859V93.776z"/><path d="M33.646,46.202V35.795H14.319v10.407h2.973v31.221h-2.973V87.83h19.327V77.423h-2.973V46.202H33.646z M17.293,38.769h13.38  v4.46h-13.38V38.769z M30.673,84.856h-13.38v-4.46h13.38V84.856z M27.7,77.423h-7.433V46.202H27.7V77.423z"/><path d="M58.92,46.202V35.795H39.593v10.407h2.973v31.221h-2.973V87.83H58.92V77.423h-2.973V46.202H58.92z M42.567,38.769h13.38  v4.46h-13.38V38.769z M55.947,84.856h-13.38v-4.46h13.38V84.856z M52.973,77.423H45.54V46.202h7.433V77.423z"/><path d="M84.194,46.202V35.795H64.867v10.407h2.973v31.221h-2.973V87.83h19.327V77.423h-2.973V46.202H84.194z M67.84,38.769h13.38  v4.46H67.84V38.769z M81.221,84.856H67.84v-4.46h13.38V84.856z M78.247,77.423h-7.433V46.202h7.433V77.423z"/><path d="M55.947,3.385C54.46,2.344,52.379,1.75,50,1.75s-4.46,0.595-6.095,1.635L8.742,26.875l-0.369,0.247l0,0l-0.743,0.497v11.15  h84.742v-11.15L55.947,3.385z M45.54,5.764c1.189-0.595,2.825-1.041,4.46-1.041s3.271,0.297,4.311,1.041l31.734,21.111H13.94  L45.54,5.764z M10.602,35.795v-5.947h78.795v5.947H10.602z"/></svg>