<?xml version="1.0" ?><svg height="24px" version="1.1" viewBox="0 0 24 24" width="24px" xmlns="http://www.w3.org/2000/svg" xmlns:sketch="http://www.bohemiancoding.com/sketch/ns" xmlns:xlink="http://www.w3.org/1999/xlink"><title/><desc/><defs/><g fill="none" fill-rule="evenodd" id="miu" stroke="none" stroke-width="1"><g id="Artboard-1" transform="translate(-755.000000, -371.000000)"><g id="slice" transform="translate(215.000000, 119.000000)"/><path d="M774.997785,387.125448 L775,386.940674 L775,374.455306 C775,374.203847 774.797701,374 774.538406,374 L760.461594,374 C760.206663,374 760,374.204462 760,374.455306 L760,393.544694 C760,393.796153 760.202299,394 760.461594,394 L769.988281,394 L771.383639,394.025751 C770.536163,393.292294 770,392.208761 770,391 C770,388.790861 771.790861,387 774,387 C774.344502,387 774.678832,387.043551 774.997785,387.125448 L774.997785,387.125448 Z M776,387.535129 L776,374 C776,374 776,373 775,373 L761,373 L762,372 L775,372 C777,372 777,374 777,374 L777,388.354176 C776.714036,388.030181 776.376405,387.752867 776,387.535129 L776,387.535129 Z M758.2,389 C758.2,389 757,389 757,390.5 C757,392 758.2,392 758.2,392 L759,392 L759,389 L758.2,389 Z M758.2,385 C758.2,385 757,385 757,386.5 C757,388 758.2,388 758.2,388 L759,388 L759,385 L758.2,385 Z M758.2,380 C758.2,380 757,380 757,381.5 C757,383 758.2,383 758.2,383 L759,383 L759,380 L758.2,380 Z M758.2,376 C758.2,376 757,376 757,377.5 C757,379 758.2,379 758.2,379 L759,379 L759,376 L758.2,376 Z M773,388 L775,388 L775,390 L777,390 L777,392 L775,392 L775,394 L773,394 L773,392 L771,392 L771,390 L773,390 L773,388 Z" fill="#000000" id="editor-notebook-add-new-glyph"/></g></g></svg>