<?xml version="1.0" ?><svg height="24px" version="1.1" viewBox="0 0 24 24" width="24px" xmlns="http://www.w3.org/2000/svg" xmlns:sketch="http://www.bohemiancoding.com/sketch/ns" xmlns:xlink="http://www.w3.org/1999/xlink"><title/><desc/><defs/><g fill="none" fill-rule="evenodd" id="miu" stroke="none" stroke-width="1"><g id="Artboard-1" transform="translate(-539.000000, -371.000000)"><g id="slice" transform="translate(215.000000, 119.000000)"/><path d="M543.352941,376 C543.352941,376 541,376 541,378.285714 L541,389.714286 C541,392 543.352941,392 543.352941,392 L558.647059,392 C558.647059,392 561,392 561,389.714286 L561,378.285714 C561,376 558.647059,376 558.647059,376 L543.352941,376 L543.352941,376 Z M547,389 C548.656854,389 550,387.656854 550,386 L547,386 L547,383 C545.343146,383 544,384.343146 544,386 C544,387.656854 545.343146,389 547,389 L547,389 Z M540.578947,393 C540.578947,393 540.000001,393 540,393.5 C540,394 540.578947,394 540.578947,394 L561.421053,394 C561.421053,394 562,394 562,393.5 C562,393 561.421053,393 561.421053,393 L540.578947,393 L540.578947,393 Z M540.578947,374 C540.578947,374 540.000001,374 540,374.5 C540,375 540.578947,375 540.578947,375 L561.421053,375 C561.421053,375 562,375 562,374.5 C562,374 561.421053,374 561.421053,374 L540.578947,374 L540.578947,374 Z M552,382 L552,383 L553,383 L553,382 L552,382 L552,382 Z M554,382 L554,383 L558,383 L558,382 L554,382 L554,382 Z M544,379 L544,380 L558,380 L558,379 L544,379 L544,379 Z M552,385 L552,386 L553,386 L553,385 L552,385 L552,385 Z M554,385 L554,386 L558,386 L558,385 L554,385 L554,385 Z M552,388 L552,389 L553,389 L553,388 L552,388 L552,388 Z M554,388 L554,389 L558,389 L558,388 L554,388 Z M550,372 L550,374 L552,374 L552,372 L550,372 Z" fill="#ffffff" id="device-projector-screen-content-chart-presentation-glyph"/></g></g></svg>
