<?xml version="1.0" ?><svg height="24px" version="1.1" viewBox="0 0 24 24" width="24px" xmlns="http://www.w3.org/2000/svg" xmlns:sketch="http://www.bohemiancoding.com/sketch/ns" xmlns:xlink="http://www.w3.org/1999/xlink"><title/><desc/><defs/><g fill="none" fill-rule="evenodd" id="miu" stroke="none" stroke-width="1"><g id="Artboard-1" transform="translate(-539.000000, -659.000000)"><g id="slice" transform="translate(215.000000, 119.000000)"/><path d="M553.516113,664.499198 L550,661.657565 L539.425977,670.203222 L538.796778,669.425977 L550,660.356702 L554.608093,664.087063 C554.24244,664.198897 553.876622,664.335145 553.516113,664.499198 L553.516113,664.499198 Z M559.619383,669.431706 L560.574023,670.203222 L561.203222,669.425977 L560.595886,668.934324 L559.619383,669.431706 L559.619383,669.431706 Z M558.644558,669.928232 L559,670.215872 L559,682 L541,682 L541,670.215872 L550,662.93267 L552.565306,665.00863 C550.866797,666.069545 549.413317,667.87088 548.848861,670.81149 L548.620725,672 L547,672 L547,681 L553,681 L553,672 L550.386867,672 L550.680295,671.527811 C552.456219,668.669964 554.285139,667.772478 556.173245,667.928336 L556.605214,668.277904 L556.441121,669.284741 L556.173817,671.186704 L557.885255,670.314983 L558.644558,669.928232 L558.644558,669.928232 Z M540,662 L543,662 L543,664.736773 L540,667.165344 L540,662 Z M549.830933,671 C552.935303,666.004394 556.632044,666.887423 557.740531,667.224256 L557.431389,669.423914 L562.869835,666.653841 L558.405601,662.492037 L558.092382,664.720705 C556.500453,664.59327 551.036255,664.720705 549.830933,671 Z" fill="#ffffff" id="house-home-export-real_estate-property-glyph"/></g></g></svg>
