<?xml version="1.0" ?><svg id="Layer_1" style="enable-background:new 0 0 512 512;" version="1.1" viewBox="0 0 512 512" xml:space="preserve" xmlns="http://www.w3.org/2000/svg" xmlns:xlink="http://www.w3.org/1999/xlink"><g id="XMLID_359_"><circle cx="67.8" cy="408.8" id="XMLID_368_" r="25"/><path d="M505.4,93.6c-2.6-10.8-13.4-17.5-24.2-14.9l-84.5,20.1c-6.1,1.5-11.2,5.7-13.8,11.5L324.6,363H26.1   C15,363,6,372,6,383.1s9,20.1,20.1,20.1h7.7c2.7-16.3,16.9-28.9,34-28.9s31.3,12.5,34,28.9h130.5c2.7-16.3,16.9-28.9,34-28.9   c17.1,0,31.3,12.5,34,28.9h37.7c8,0,15.2-4.7,18.4-12.1l59.7-255.5l74.7-17.8C501.3,115.3,508,104.4,505.4,93.6z" id="XMLID_367_"/><circle cx="266.2" cy="408.8" id="XMLID_366_" r="25"/><rect height="60.8" id="XMLID_365_" width="66.7" x="103.7" y="222.4"/><rect height="60.8" id="XMLID_364_" width="66.7" x="183.4" y="222.4"/><rect height="60.8" id="XMLID_363_" width="66.7" x="143.6" y="153"/><rect height="60.8" id="XMLID_362_" width="66.7" x="224.6" y="291.7"/><rect height="60.8" id="XMLID_361_" width="66.7" x="143.6" y="291.7"/><rect height="60.8" id="XMLID_360_" width="66.7" x="62.5" y="291.7"/></g></svg>